<?xml version="1.0" encoding="utf-8"?>
<!-- Generator: Adobe Illustrator 25.3.1, SVG Export Plug-In . SVG Version: 6.00 Build 0)  -->
<svg version="1.1" xmlns="http://www.w3.org/2000/svg" xmlns:xlink="http://www.w3.org/1999/xlink" x="0px" y="0px"
	 viewBox="0 0 45.84 42.83" style="enable-background:new 0 0 45.84 42.83;" xml:space="preserve">
<style type="text/css">
	.st0{fill:#0000FF;stroke:#0000FF;stroke-width:3;stroke-miterlimit:10;}
	.st1{fill:none;stroke:#0000FF;stroke-width:3;stroke-miterlimit:10;}
	.st2{fill:none;stroke:#FFFFFF;stroke-width:4;stroke-linecap:round;stroke-miterlimit:10;}
	.st3{fill:none;stroke:#000000;stroke-width:4;stroke-linecap:round;stroke-miterlimit:10;}
	.st4{fill:none;stroke:#000000;stroke-width:2;stroke-linecap:round;stroke-miterlimit:10;}
	.st5{fill:#FFFFFF;stroke:#000000;stroke-width:2;stroke-linecap:round;stroke-miterlimit:10;}
	.st6{fill:#FFFFFF;stroke:#0000FF;stroke-width:2;stroke-linecap:round;stroke-miterlimit:10;}
	.st7{fill:none;stroke:#0000FF;stroke-width:2;stroke-linecap:round;stroke-miterlimit:10;}
	.st8{fill:none;stroke:#0000FF;stroke-width:4;stroke-linecap:round;stroke-miterlimit:10;}
	.st9{fill:none;stroke:#C1272D;stroke-width:2;stroke-linecap:round;stroke-miterlimit:10;}
</style>
<g id="Right-Sign">
	<g>
		<line class="st0" x1="-290.41" y1="26.63" x2="-274.44" y2="42.61"/>
		<line class="st1" x1="-238.25" y1="4.54" x2="-276.05" y2="42.63"/>
	</g>
</g>
<g id="White-Arrow">
	<rect x="-223.72" y="1.03" width="38.65" height="41.46"/>
	<g>
		<g>
			<line class="st2" x1="-220.92" y1="21.69" x2="-187.4" y2="21.69"/>
			<line class="st2" x1="-204.1" y1="4.99" x2="-187.4" y2="21.69"/>
		</g>
		<g>
			<line class="st2" x1="-220.91" y1="21.99" x2="-187.4" y2="21.99"/>
			<line class="st2" x1="-204.1" y1="38.69" x2="-187.4" y2="21.99"/>
		</g>
	</g>
</g>
<g id="Black-Arrow">
	<g>
		<g>
			<line class="st3" x1="-171.87" y1="22" x2="-138.35" y2="22"/>
			<line class="st3" x1="-155.05" y1="5.3" x2="-138.35" y2="22"/>
		</g>
		<g>
			<line class="st3" x1="-171.86" y1="22.3" x2="-138.35" y2="22.3"/>
			<line class="st3" x1="-155.05" y1="39" x2="-138.35" y2="22.3"/>
		</g>
	</g>
</g>
<g id="Services-Icon1">
	<g>
		<path class="st4" d="M-11.79,10.87"/>
		<path class="st4" d="M-20.06,11.12h-15.7c-4.56,0-8.26,2.2-8.26,4.92v0c0,2.72,3.7,4.92,8.26,4.92h17.99"/>
		<path class="st4" d="M-35.25,30.64l15.33-0.02c4.56,0,8.26-2.2,8.26-4.92v0c0-2.72-3.7-4.92-8.26-4.92h-17.99"/>
		<ellipse class="st5" cx="-41.29" cy="30.11" rx="2.73" ry="1.63"/>
		<ellipse class="st5" cx="-14.39" cy="11.21" rx="2.73" ry="1.63"/>
	</g>
</g>
<g id="Lenders-Icon">
	<g>
		<g>
			<g>
				<rect x="-122.9" y="13.1" class="st6" width="59.82" height="29.87"/>
				<g>
					<line class="st7" x1="-123.93" y1="43.77" x2="-122.83" y2="42.81"/>
					<line class="st7" x1="-61.87" y1="43.77" x2="-62.97" y2="42.81"/>
					<line class="st7" x1="-123.93" y1="12.05" x2="-122.83" y2="13"/>
					<line class="st7" x1="-61.87" y1="12.05" x2="-62.97" y2="13"/>
				</g>
			</g>
			<g>
				<line class="st7" x1="-122.89" y1="10.4" x2="-92.84" y2="1.58"/>
				<line class="st7" x1="-62.92" y1="10.4" x2="-92.96" y2="1.58"/>
			</g>
		</g>
		<g>
			<line class="st8" x1="-110.98" y1="19.53" x2="-110.98" y2="32.72"/>
			<line class="st8" x1="-92.9" y1="19.53" x2="-92.9" y2="37.33"/>
			<line class="st8" x1="-74.82" y1="19.53" x2="-74.82" y2="31.33"/>
		</g>
	</g>
</g>
<g id="Team-Icon">
	<g>
		<g>
			<path class="st9" d="M37.76,23.67c3.14,0.06,5.66,1.91,5.66,4.17v12.52"/>
			<path class="st9" d="M33.12,23.67h4.61c0.01,0,0.02,0,0.03,0"/>
		</g>
		<path class="st9" d="M31.08,3.89c3.95,0,7.15,3.2,7.15,7.15s-3.2,7.15-7.15,7.15"/>
		<path class="st9" d="M2.85,40.36V27.84c0-2.3,2.01-4.17,4.5-4.17h17.53c2.48,0,4.5,1.87,4.5,4.17v12.52"/>
		<circle class="st9" cx="16.11" cy="10.68" r="8.43"/>
	</g>
</g>
</svg>
